Coordinates
version=1
nRows=9
nColumns=42
inDegrees=yes

Units are S.I. units (second, meters, Newtons, ...)
If the header above contains a line with 'inDegrees', this indicates whether rotational values are in degrees (yes) or radians (no).

endheader
time	pelvis_tilt	pelvis_list	pelvis_rotation	pelvis_tx	pelvis_ty	pelvis_tz	hip_flexion_r	hip_adduction_r	hip_rotation_r	knee_angle_r	knee_adduction_r	knee_angle_r_beta	ankle_angle_r	subtalar_angle_r	mtp_angle_r	hip_flexion_l	hip_adduction_l	hip_rotation_l	knee_angle_l	knee_adduction_l	knee_angle_l_beta	ankle_angle_l	subtalar_angle_l	mtp_angle_l	lumbar_extension	lumbar_bending	lumbar_rotation	arm_flex_r	arm_add_r	arm_rot_r	elbow_flex_r	pro_sup_r	wrist_flex_r	wrist_dev_r	arm_flex_l	arm_add_l	arm_rot_l	elbow_flex_l	pro_sup_l	wrist_flex_l	wrist_dev_l
      2.98000000	     21.48491680	      1.06205642	      4.22338165	      0.85527892	      0.94290529	     -0.54893363	      4.67088154	     -6.49538530	    -24.52109825	     54.06692473	    -13.47600404	      0.94364585	     13.04063300	     20.97095633	     -7.50115537	    -14.85609470	      6.40877424	     -1.57358223	     22.68937562	     -2.07775985	      0.39600431	     20.43144649	     -7.34199298	     -7.50115537	    -35.24923402	     -2.83345665	      1.49515724	     12.94920015	    -11.86994475	    -14.95330146	     30.41579239	     90.00000001	      0.00000000	      0.00000000	      0.76300805	    -22.01226542	      5.98556027	     69.48173014	     90.00000001	      0.00000000	      0.00000000
      2.99000000	     21.33175826	      0.96015647	      4.03866484	      0.85902962	      0.94283932	     -0.54998973	      5.41117421	     -6.03960559	    -24.02666807	     52.61268340	    -13.05445098	      0.91826455	     12.82063517	     21.69597681	     -7.50112938	    -15.07173496	      6.45281928	     -1.74078017	     22.41491789	     -2.11826054	      0.39121412	     20.62701843	     -7.34121684	     -7.50112938	    -35.16253633	     -2.85091197	      1.58193144	     12.63782785	    -11.93702251	    -15.06579865	     30.20730176	     90.00000001	      0.00000000	      0.00000000	      0.72021830	    -22.00287460	      5.83758879	     69.29337563	     90.00000001	      0.00000000	      0.00000000
      3.00000000	     21.32433596	      0.86784512	      3.97270640	      0.86295544	      0.94302391	     -0.55116684	      5.86285459	     -5.57390892	    -24.23573098	     50.83910455	    -13.10918603	      0.88730976	     12.69752899	     23.44875620	     -7.50106551	    -15.54323129	      6.45637600	     -1.63112019	     21.97009285	     -2.08845657	      0.38345046	     20.60979575	     -7.37096564	     -7.50106551	    -35.21497639	     -2.80795892	      1.55189437	     12.35139776	    -11.91651202	    -15.62225320	     30.03241997	     90.00000001	      0.00000000	      0.00000000	      0.62130964	    -22.01075225	      5.63057175	     69.21479239	     90.00000001	      0.00000000	      0.00000000
      3.01000000	     20.95693289	      0.94767896	      3.89588020	      0.86666934	      0.94238194	     -0.55239912	      6.81945693	     -5.45355236	    -23.87124840	     49.65397991	    -12.52447780	      0.86662544	     12.64283079	     23.32370709	     -7.50105077	    -15.39517301	      6.68982926	     -1.82247361	     22.00678508	     -2.16823202	      0.38409086	     20.71823760	     -7.20380007	     -7.50105077	    -34.91684890	     -2.96435756	      1.45349189	     11.91562689	    -11.96355408	    -15.63018714	     30.06136722	     90.00000001	      0.00000000	      0.00000000	      0.53342664	    -22.07833632	      5.57416812	     69.22556348	     90.00000001	      0.00000000	      0.00000000
      3.02000000	     21.00664807	      0.69386923	      3.60061908	      0.87057162	      0.94267904	     -0.55305838	      7.08697312	     -4.69608034	    -22.89142211	     47.76839308	    -11.88516470	      0.83371574	     12.28078106	     24.71893743	     -7.50103272	    -15.95395283	      6.55486611	     -2.07138284	     21.43936183	     -2.18128766	      0.37418745	     20.98116445	     -7.25732567	     -7.50103272	    -35.01004080	     -2.86255974	      1.71336951	     11.70861204	    -12.04873480	    -15.82738249	     29.60401162	     90.00000001	      0.00000000	      0.00000000	      0.51500939	    -21.97989242	      5.41320692	     68.99921694	     90.00000001	      0.00000000	      0.00000000
      3.03000000	     20.64670157	      0.80405686	      3.53741107	      0.87439344	      0.94194512	     -0.55425457	      7.95212087	     -4.65604331	    -22.72719945	     46.58291913	    -11.33274246	      0.81302531	     12.28282198	     24.55674926	     -7.50101961	    -15.82372479	      6.79119164	     -2.24561167	     21.47645952	     -2.21948520	      0.37483493	     21.03984806	     -7.05938717	     -7.50101961	    -34.70712375	     -3.03941432	      1.61858903	     11.26356799	    -12.09190224	    -15.86139049	     29.64954296	     90.00000001	      0.00000000	      0.00000000	      0.39459057	    -22.05873540	      5.35269051	     69.03682224	     90.00000001	      0.00000000	      0.00000000
      3.04000000	     20.87373556	      0.52815986	      3.36672085	      0.87847452	      0.94255118	     -0.55492750	      7.81530120	     -3.81089243	    -22.19454373	     44.35380906	    -11.02193222	      0.77412000	     11.97481741	     26.52113111	     -7.50100055	    -16.66602958	      6.56578163	     -2.31654457	     20.74605207	     -2.16650746	      0.36208692	     21.13428054	     -6.90101227	     -7.50100055	    -34.98605867	     -2.85583527	      1.77350744	     11.10062164	    -12.09799073	    -16.39068423	     29.20123816	     90.00000001	      0.00000000	      0.00000000	      0.34816999	    -21.96686702	      5.18969632	     68.92675024	     90.00000001	      0.00000000	      0.00000000
      3.05000000	     20.75899939	      0.48116660	      3.25294105	      0.88245978	      0.94230476	     -0.55588508	      8.20271707	     -3.45135801	    -22.00223849	     42.75033210	    -10.67361697	      0.74613405	     11.84836004	     27.50356722	     -7.50097970	    -16.95204147	      6.62294889	     -2.48810062	     20.43718061	     -2.20231436	      0.35669609	     21.31597038	     -6.73318642	     -7.50097970	    -34.92498087	     -2.87867863	      1.79640007	     10.79099306	    -12.10461359	    -16.81550835	     28.97958261	     90.00000001	      0.00000000	      0.00000000	      0.27501052	    -21.95637030	      5.14226904	     68.94567047	     90.00000001	      0.00000000	      0.00000000
      3.06000000	     20.52297094	      0.54443441	      3.15020749	      0.88633837	      0.94176928	     -0.55692366	      8.75314296	     -3.23991991	    -21.74848547	     41.36067850	    -10.32257874	      0.72188002	     11.85756547	     27.80624207	     -7.50096760	    -17.03252687	      6.88015471	     -2.62763722	     20.27574798	     -2.41794953	      0.35387856	     21.55683971	     -6.63642291	     -7.50096760	    -34.75106494	     -2.99210312	      1.73500292	     10.45442095	    -12.11996453	    -16.99621583	     28.83809637	     90.00000001	      0.00000000	      0.00000000	      0.19398063	    -21.96654695	      5.13300170	     68.97375784	     90.00000001	      0.00000000	      0.00000000
